<svg id="Layer_1" data-name="Layer 1" xmlns="http://www.w3.org/2000/svg" viewBox="0 0 621.28 223.89">
    <defs>
        <style>.cls-1{fill:#fff;}.cls-2{fill:#fff;}</style>
    </defs>
    <title>KINEMATICS LOGO</title>
    <path class="cls-1" d="M604.38,205.57H15V17.91H604.38ZM20.25,200.28H599.09V23.19H20.25Z"/>
    <path class="cls-1"
          d="M107.23,78.68a4.83,4.83,0,0,1-5-4.8A5.16,5.16,0,0,1,107.5,69a5,5,0,0,1,5.15,4.92c0,2.57-2,4.8-5.29,4.8Zm-3,67.41V89.91h6.51v56.18Z"/>
    <path class="cls-1"
          d="M125.18,103.37c0-5.15-.14-9-.54-13.46h6.1l.41,10.06h.27c3.52-6.32,11.79-11.35,22.36-11.35,6.24,0,22.77,2.69,22.77,23.76v33.71H170V112.85c0-10.3-4.61-19.54-18-19.54-9.08,0-16.94,5.62-19.52,13a17.35,17.35,0,0,0-.81,4.92v34.88h-6.51Z"/>
    <path class="cls-1"
          d="M192.81,117.41c0,17.91,11.39,25,24.8,25,9.49,0,14.37-1.64,18-3.16l1.63,4.33c-2.44,1.17-9.08,3.63-20.47,3.63-18.71,0-30.36-11.7-30.36-28.21,0-18.73,12.47-30.43,29.28-30.43,21.28,0,25.35,17.32,25.35,25.4a12.48,12.48,0,0,1-.27,3.39ZM234.29,113c.14-7.84-3.66-19.66-19.38-19.66-14.37,0-20.47,11-21.69,19.66Z"/>
    <path class="cls-1"
          d="M250.48,103.37c0-5.15-.14-9-.54-13.46H256l.41,9.83h.27c4.2-6.44,10.44-11.12,21.15-11.12a19.72,19.72,0,0,1,18.71,12.17h.27a22.73,22.73,0,0,1,6.64-7.61c4.2-2.93,8.54-4.56,15.45-4.56,6.37,0,21.28,3,21.28,24.34v33.12H333.7V113.44c0-12.64-5.69-20.13-16.94-20.13a18.89,18.89,0,0,0-17.08,11.12A17.64,17.64,0,0,0,298.6,110v36h-6.51V110.86c0-10.06-5.56-17.56-16.13-17.56a19.71,19.71,0,0,0-18,12.64,17.57,17.57,0,0,0-.95,5.5v34.64h-6.51Z"/>
    <path class="cls-1"
          d="M395,132.75a73,73,0,0,0,.95,13.34h-6L389,138h-.27c-3.25,4.33-10.44,9.36-20.87,9.36-13.15,0-19.11-8-19.11-15.45,0-13,13.15-20.83,39.71-20.6v-1.52c0-5.5-1.22-16.62-16.67-16.5a31.71,31.71,0,0,0-16.4,4.21l-2-4.1a40.28,40.28,0,0,1,19.11-4.8c18.84,0,22.5,12.17,22.5,22.12ZM388.47,116c-14.23-.35-32.94,1.52-32.94,15,0,8.08,6.24,11.7,13,11.7,10.84,0,17.08-5.74,19.25-11.24a8.27,8.27,0,0,0,.68-3.39Z"/>
    <path class="cls-1"
          d="M416.83,77.51V89.91h18.57v4.56H416.83V131c0,7.14,2.58,11.59,9.49,11.59a27.83,27.83,0,0,0,7.46-.82l.81,4.21a29.41,29.41,0,0,1-9.08,1.29c-4.74,0-8.67-1.29-11.11-3.86-3-2.93-4.07-7.72-4.07-13.46V94.48h-11V89.91h11V79.61Z"/>
    <path class="cls-1"
          d="M445.83,78.68a4.83,4.83,0,0,1-5-4.8A5.16,5.16,0,0,1,446.1,69a5,5,0,0,1,5.15,4.92c0,2.57-2,4.8-5.29,4.8Zm-3,67.41V89.91h6.51v56.18Z"/>
    <path class="cls-1"
          d="M509.3,143.63a50.18,50.18,0,0,1-19.11,3.63c-18.71,0-31.17-11.82-31.17-28.67,0-17.91,14.1-30,33.48-30,8,0,14.64,2,17.08,3.51l-2.3,4.56c-3.12-1.64-8.13-3.28-15.32-3.28-17.48,0-26.43,11.47-26.43,24.69,0,14.75,10.71,24.34,25.75,24.34a40.77,40.77,0,0,0,16.27-3.28Z"/>
    <path class="cls-1"
          d="M517.35,138.71A32.07,32.07,0,0,0,532,142.58c10.3,0,15.18-4.8,15.18-10.65,0-6.2-4.34-9.48-13.69-12.76-10.71-3.51-16.54-8.54-16.54-15.33,0-8.19,7.46-15.21,20.06-15.21a28.46,28.46,0,0,1,14.37,3.51l-2.44,4.56a24.34,24.34,0,0,0-13-3.39c-8.27,0-12.61,4.56-12.61,9.71,0,5.85,4.61,8.31,13.42,11.47,10.57,3.63,16.81,8.19,16.81,16.74,0,9.6-8.67,16-22,16A35.86,35.86,0,0,1,515,143.4Z"/>
    <path class="cls-1"
          d="M567.09,147.38a5.13,5.13,0,0,1-5.29-5.27,5.23,5.23,0,0,1,5.56-5.27,5.11,5.11,0,0,1,5.42,5.27,5.28,5.28,0,0,1-5.56,5.27Z"/>
    <path class="cls-1" d="M44.24,58.46H55.78v87.63H44.24Zm26.82,56.2,29.12,31.43H84.4L56.17,115.3,81.06,88.23H95.3Z"/>
</svg>