<svg id="Layer_1" data-name="Layer 1" xmlns="http://www.w3.org/2000/svg" viewBox="0 0 335.94 82.61"><defs><style>@font-face{font-family: "Alternate Gothic";src: url($alterate-gothic-font);}.cls-1,.cls-3{fill:#333;}.cls-2{fill:none;stroke:#333;stroke-miterlimit:10;stroke-width:3px;}.cls-3{isolation:isolate;font-size:80px;font-family:"Alternate Gothic";}.cls-4{fill:#1d9ad3;}</style></defs><title>Untitled-2</title><path class="cls-1" d="M43.7,56.24a48.34,48.34,0,0,0-4.14-4.42,25.24,25.24,0,0,0-1.9-1.8,7.66,7.66,0,0,0-1.25-.7,7.49,7.49,0,0,1,.3-0.69c0.82-1.44,1.68-2.86,2.47-4.32s1.33-2.93,2.2-4.27a8.63,8.63,0,0,0,1-4,1.29,1.29,0,0,0-.2-0.67,24.46,24.46,0,0,0-1.24-2.29c-1-1.48-2-2.92-3-4.38l-0.21.17,2.59,4.69a4.23,4.23,0,0,1,.61,1.07,8.64,8.64,0,0,1-.42,3.85,1.26,1.26,0,0,1-.15.35,1.88,1.88,0,0,1-.6.79l-6,9.69a2.07,2.07,0,0,0-.39.91l0.42,0.49a3.8,3.8,0,0,0,.59.53,0.19,0.19,0,0,1,.13.07h0a5.43,5.43,0,0,1,.74.62,4.38,4.38,0,0,1,.35.42,2.06,2.06,0,0,1,.5.35c1.47,1.47,3,2.9,4.4,4.42A9,9,0,0,1,43,61.21a2.46,2.46,0,0,1,.42,1.69h0c-1,3.67-4,6.34-5.28,10.15a2.87,2.87,0,0,0,.61-0.4c0.55-.76,1.06-1.55,1.63-2.29,1-1.27,2-2.54,3-3.76,0.89-1,1.88-2,2.8-3a1.27,1.27,0,0,0,.35-0.79A12.12,12.12,0,0,0,43.7,56.24Z" transform="translate(0 0)"/><path class="cls-1" d="M32.72,52.35l-1-1.19c-0.82-.65-0.9.2-1.13,0.67a14.62,14.62,0,0,1-3.51,5.06,5,5,0,0,0-.64.67A13.25,13.25,0,0,0,26.29,59V59a1.23,1.23,0,0,1-.19,1.73h0C25.43,61.55,24.6,62.2,24,63c-1,1.31-2.5,2-3.21,3.63a49.22,49.22,0,0,1-3,5.14,4.18,4.18,0,0,0-.29,1l0.29,0.14A10.45,10.45,0,0,0,18.65,72c0.42-.57.74-1.22,1.19-1.76,1-1.24,2.13-2.45,3.23-3.65a35.6,35.6,0,0,1,3.74-3.92,4.64,4.64,0,0,0,1.75-3,3.92,3.92,0,0,1,1.52-2.48c0.59-.44,1.17-0.9,1.74-1.36,0.83-.66,1.61-1.44,3-1Z" transform="translate(0 0)"/><path class="cls-1" d="M34.78,31a22.31,22.31,0,0,0-3.08-.72H31.27c-1.18.22-2.36,0.43-3.54,0.67a5.2,5.2,0,0,1-1.56.74,4.3,4.3,0,0,1-.54.11,0.74,0.74,0,0,1-.2.1l-0.34.1a4.89,4.89,0,0,1-.51.26H24.49a12.13,12.13,0,0,1-1.46.5l-1.45,1.1a2.84,2.84,0,0,0-.26.43h0l-0.27,1.52v0.78a0.82,0.82,0,0,1,.12.3,1.14,1.14,0,0,1,.12.24c0.55,1.64,1.1,3.29,1.57,5,0.13,0.47.44,0.91,0.53,1.4a0.88,0.88,0,0,1,.06.14,2.85,2.85,0,0,1,.11.77c0.06,0.23.15,0.46,0.2,0.7s0.07,0.34.1,0.51a3.72,3.72,0,0,0,.34.71c0.12,0.23.34,0.61,0.51,0.91L25,47.16l-0.21-2.92a4.45,4.45,0,0,1-.22-2c0-.83-0.16-1.67-0.2-2.5l-1.16-4.58a10.37,10.37,0,0,0,1.66-.78,5.64,5.64,0,0,1,2.71-1.26L28.11,33A8.67,8.67,0,0,1,31,32.32a0.84,0.84,0,0,1,.3-0.09,4.83,4.83,0,0,1,2.91.58,14.41,14.41,0,0,0,1.52.56l0.22,0.12,0.22,0.08a6.05,6.05,0,0,0,.83,0A11.21,11.21,0,0,0,34.78,31Z" transform="translate(0 0)"/><path class="cls-1" d="M54.31,35.8a5.06,5.06,0,0,1,.06-1,0.79,0.79,0,0,1,0-.32v0L54,34.05c-1.62,4-5.4,5.79-7.5,9.1l-0.28-.22L46,42.69A8.51,8.51,0,0,1,43.79,39L43,40a3.58,3.58,0,0,1-.07,1c-0.29.76-.66,1.49-1,2.23l-0.51,1.13c2.2-.17,3.57,1.4,5.4,2.14C47.34,45,48.65,44,49.5,42.58a69.18,69.18,0,0,1,4.62-6.11A1.81,1.81,0,0,0,54.31,35.8Z" transform="translate(0 0)"/><path class="cls-1" d="M47.9,41.92" transform="translate(0 0)"/><path class="cls-1" d="M38.08,27.48a4,4,0,0,1-1.43-2.76c0-.46-0.14-0.93-0.15-1.39a7.92,7.92,0,0,1,.11-1.45A0.52,0.52,0,0,1,37,21.63a0.49,0.49,0,0,1,.36.3,6.34,6.34,0,0,0,1.73,2.84,2.1,2.1,0,0,1-.2,1.82Z" transform="translate(0 0)"/><path class="cls-1" d="M42.05,29l-1.18,2-1.38-1.67a0.36,0.36,0,0,1,0-.23,2.56,2.56,0,0,1,2-1.42,3,3,0,0,1,1.55.66,1.66,1.66,0,0,0,1,0c0.53,0,.69.16,0.54,0.64-0.25.79-.73,0.89-1.38,0.41A4.37,4.37,0,0,0,42.05,29Z" transform="translate(0 0)"/><circle class="cls-2" cx="35.32" cy="47.29" r="33.82"/><text class="cls-3" transform="translate(74.83 66.68)">kinematics.</text><rect class="cls-4" x="77.83" y="74.68" width="255.36" height="6.85"/><path class="cls-1" d="M39.23,20.29c1.27-.28,2.63,1.27,3.12,2.23a8.24,8.24,0,0,1,.74,3.72c0,0.8,2.9.29,2.9-.78A7.07,7.07,0,0,0,44,20,5.59,5.59,0,0,0,38.87,19c-0.39.09-1.42,0.49-1.27,1s1.27,0.36,1.63.28h0Z" transform="translate(0 0)"/><path class="cls-1" d="M42.1,39.39A15.23,15.23,0,0,0,41.4,44c0,0.53,2.9.1,2.9-.78a14.24,14.24,0,0,1,.67-4.3c0.2-.63-2.62-0.29-2.86.49h0Z" transform="translate(0 0)"/><path class="cls-1" d="M29.66,51.15a7.43,7.43,0,0,0-1.83,2.33c-0.58,1-1.47,1.81-2,2.81s-0.35,2.07-.6,3.14a12.11,12.11,0,0,1-2.28,4.09c-0.73,1,2.15.7,2.68,0a12.17,12.17,0,0,0,2.65-6,5.44,5.44,0,0,1,1.51-2.81c0.78-1.06,1.13-2.31,2.19-3.14,1.26-1-1.62-.92-2.3-0.38h0Z" transform="translate(0 0)"/></svg>